<?xml version="1.0" standalone="no"?>
<!DOCTYPE svg PUBLIC "-//W3C//DTD SVG 20010904//EN"
 "http://www.w3.org/TR/2001/REC-SVG-20010904/DTD/svg10.dtd">
<svg version="1.0" xmlns="http://www.w3.org/2000/svg"
 width="512.000000pt" height="512.000000pt" viewBox="0 0 512.000000 512.000000"
 preserveAspectRatio="xMidYMid meet">

<g transform="translate(0.000000,512.000000) scale(0.100000,-0.100000)"
fill="#000000" stroke="none">
<path d="M2412 5091 c-203 -75 -322 -242 -322 -451 0 -139 51 -253 156 -349
178 -163 450 -163 628 0 105 96 156 210 156 349 0 188 -98 343 -269 428 -71
35 -81 37 -185 40 -90 2 -121 -1 -164 -17z"/>
<path d="M1310 4282 c-227 -59 -379 -291 -343 -523 40 -258 284 -439 539 -399
253 40 435 283 397 531 -45 285 -315 463 -593 391z"/>
<path d="M3573 4286 c-296 -72 -446 -403 -307 -678 38 -75 135 -168 215 -206
287 -137 623 41 672 357 50 327 -256 605 -580 527z"/>
<path d="M2210 3923 c-19 -2 -58 -8 -86 -14 l-51 -10 -6 -93 c-14 -207 -110
-387 -263 -492 l-56 -39 83 -12 c182 -26 326 -98 455 -227 91 -91 160 -199
194 -306 l23 -70 57 0 57 0 23 70 c34 107 103 215 194 306 127 126 277 202
454 227 l84 12 -56 39 c-153 105 -249 285 -263 492 -7 106 2 98 -125 114 -70
8 -71 8 -164 -35 l-93 -44 54 -93 55 -93 -110 -3 c-61 -1 -159 -1 -220 0
l-110 3 55 93 54 93 -95 45 c-52 24 -98 43 -102 42 -4 0 -23 -3 -42 -5z"/>
<path d="M984 3090 c-180 -47 -326 -165 -410 -332 -58 -115 -64 -158 -64 -490
l0 -297 41 14 c27 10 82 15 160 15 l119 0 0 193 c0 189 1 194 23 215 13 12 35
22 49 22 78 0 88 -27 88 -249 l0 -180 238 -3 237 -3 54 -30 c34 -19 67 -48 89
-77 l34 -48 118 0 119 0 3 276 3 276 24 19 c32 26 82 25 109 -4 21 -23 22 -30
22 -295 l0 -272 161 0 160 0 -3 388 -3 387 -26 67 c-94 243 -301 405 -539 425
-61 4 -71 2 -152 -36 -49 -22 -88 -43 -88 -46 0 -3 22 -45 50 -93 l50 -87
-212 -3 c-116 -1 -213 -1 -215 2 -2 2 19 43 47 91 29 48 48 91 43 95 -4 5 -45
25 -90 44 -94 41 -133 44 -239 16z"/>
<path d="M3234 3090 c-225 -59 -400 -236 -459 -465 -12 -48 -15 -128 -15 -422
l0 -363 160 0 160 0 0 273 c0 273 0 274 23 295 29 27 77 28 108 3 l24 -19 3
-276 3 -276 444 0 444 0 3 276 3 276 24 19 c32 26 82 25 109 -4 21 -23 22 -30
22 -295 l0 -272 160 0 160 0 0 363 c0 411 -4 439 -72 570 -95 182 -291 315
-494 334 -54 5 -68 2 -145 -31 -46 -21 -88 -41 -92 -46 -5 -4 14 -47 42 -94
28 -48 51 -89 51 -91 0 -3 -97 -5 -215 -5 -118 0 -215 2 -215 4 0 2 23 42 50
89 28 47 50 88 50 91 0 3 -39 24 -86 46 -100 46 -140 49 -250 20z"/>
<path d="M562 1806 c-33 -30 -37 -40 -37 -81 0 -41 4 -51 37 -81 l38 -34 416
0 416 0 34 34 c29 29 34 41 34 81 0 40 -5 52 -34 81 l-34 34 -416 0 -416 0
-38 -34z"/>
<path d="M589 1423 c-23 -60 -49 -169 -65 -271 -13 -84 -15 -145 -11 -282 6
-173 16 -241 63 -407 l17 -63 423 0 422 0 21 80 c46 168 56 247 55 445 0 197
-10 276 -56 448 l-21 77 -419 0 -418 0 -11 -27z"/>
<path d="M1675 920 l0 -230 1370 2 1370 3 41 22 c83 44 134 125 134 212 0 45
-39 128 -76 163 -66 62 27 58 -1471 58 l-1368 0 0 -230z"/>
<path d="M582 220 c-72 -44 -77 -144 -9 -192 32 -23 34 -23 402 -26 204 -2
390 0 414 3 65 10 111 58 111 117 0 24 -7 54 -16 66 -36 51 -43 52 -471 52
-382 0 -399 -1 -431 -20z"/>
</g>
</svg>
