<?xml version="1.0" standalone="no"?>
<!DOCTYPE svg PUBLIC "-//W3C//DTD SVG 20010904//EN"
 "http://www.w3.org/TR/2001/REC-SVG-20010904/DTD/svg10.dtd">
<svg xmlns="http://www.w3.org/2000/svg" version="1.1" 
width="512px" height="512px" style="shape-rendering:geometricPrecision; text-rendering:geometricPrecision; image-rendering:optimizeQuality; fill-rule:evenodd; clip-rule:evenodd" xmlns:xlink="http://www.w3.org/1999/xlink">
<g><path style="opacity:0.985" fill="#000000" d="M 511.5,253.5 C 511.5,254.833 511.5,256.167 511.5,257.5C 487.206,291.299 458.872,321.466 426.5,348C 386.772,379.356 341.772,399.022 291.5,407C 218.114,415.405 151.781,397.738 92.5,354C 67.4805,335.651 44.9805,314.485 25,290.5C 16.48,279.431 7.97999,268.431 -0.5,257.5C -0.5,256.167 -0.5,254.833 -0.5,253.5C 30.8172,208.016 69.8172,170.516 116.5,141C 209.167,88.3333 301.833,88.3333 394.5,141C 441.183,170.516 480.183,208.016 511.5,253.5 Z M 244.5,153.5 C 297.74,152.179 333.907,176.179 353,225.5C 364.876,276.892 348.709,316.725 304.5,345C 255.469,367.303 212.636,358.803 176,319.5C 149.88,283.925 146.547,246.259 166,206.5C 183.801,176.511 209.968,158.844 244.5,153.5 Z"/></g>
<g><path style="opacity:0.977" fill="#000000" d="M 250.5,203.5 C 284.784,204.134 303.784,221.467 307.5,255.5C 304.501,287.165 287.168,304.499 255.5,307.5C 223.832,304.499 206.499,287.165 203.5,255.5C 206.361,226.365 222.028,209.031 250.5,203.5 Z"/></g>
</svg>
