<?xml version="1.0" encoding="iso-8859-1"?>
<!-- Uploaded to: SVG Repo, www.svgrepo.com, Generator: SVG Repo Mixer Tools -->
<svg height="800px" width="800px" version="1.1" id="Layer_1" xmlns="http://www.w3.org/2000/svg"
  xmlns:xlink="http://www.w3.org/1999/xlink" viewBox="0 0 512 512" xml:space="preserve">
  <g>
    <g>
      <path
        d="M424.729,40.828h-75.858v-15.32C348.871,11.443,337.428,0,323.363,0H188.637c-14.065,0-25.508,11.443-25.508,25.508v15.32
			H87.271c-9.187,0-16.635,7.448-16.635,16.635v437.902c0,9.187,7.448,16.635,16.635,16.635h337.458
			c9.187,0,16.635-7.448,16.635-16.635V57.463C441.365,48.276,433.917,40.828,424.729,40.828z M196.4,33.271h119.2
			c0,14.93,0,25.274,0,40.075H196.4C196.4,58.544,196.4,48.2,196.4,33.271z M408.094,478.729H103.906V74.098h59.223v7.01v0.201
			c0,13.955,11.352,25.307,25.307,25.307h0.201h134.727h0.201c13.955,0,25.307-11.352,25.307-25.307v-0.201v-7.01h59.223V478.729z" />
    </g>
  </g>
  <g>
    <g>
      <path d="M197.289,173.883l13.967-13.967c6.497-6.497,6.497-17.029,0-23.526c-6.496-6.497-17.029-6.497-23.526,0l-13.967,13.967
			l-13.967-13.967c-6.496-6.497-17.029-6.497-23.526,0c-6.497,6.497-6.497,17.029,0,23.526l13.967,13.967l-13.967,13.967
			c-6.497,6.497-6.497,17.029,0,23.526c6.496,6.497,17.029,6.498,23.526,0l13.967-13.967l13.967,13.967
			c6.496,6.497,17.029,6.498,23.526,0c6.497-6.497,6.497-17.029,0-23.526L197.289,173.883z" />
    </g>
  </g>
  <g>
    <g>
      <path d="M197.289,297.986l13.967-13.967c6.497-6.497,6.497-17.029,0-23.526c-6.496-6.497-17.029-6.497-23.526,0l-13.967,13.967
			l-13.967-13.967c-6.496-6.496-17.028-6.497-23.526,0c-6.497,6.496-6.497,17.029,0,23.526l13.967,13.967l-13.967,13.967
			c-6.497,6.497-6.497,17.029,0,23.526c6.496,6.497,17.029,6.498,23.526,0l13.967-13.967l13.967,13.967
			c6.497,6.497,17.029,6.497,23.526,0c6.497-6.496,6.497-17.029,0-23.526L197.289,297.986z" />
    </g>
  </g>
  <g>
    <g>
      <path d="M175.295,375.959c-25.435,0-46.129,20.693-46.129,46.129s20.693,46.129,46.129,46.129s46.129-20.693,46.129-46.129
			S200.731,375.959,175.295,375.959z M175.295,434.946c-7.09,0-12.858-5.768-12.858-12.858s5.769-12.858,12.858-12.858
			c7.09,0,12.858,5.768,12.858,12.858S182.385,434.946,175.295,434.946z" />
    </g>
  </g>
  <g>
    <g>
      <path d="M375.11,157.247H265.749c-9.187,0-16.635,7.448-16.635,16.635c0,9.187,7.448,16.635,16.635,16.635H375.11
			c9.187,0,16.635-7.448,16.635-16.635C391.746,164.696,384.297,157.247,375.11,157.247z" />
    </g>
  </g>
  <g>
    <g>
      <path d="M375.11,281.35H265.749c-9.187,0-16.635,7.448-16.635,16.635c0,9.187,7.448,16.635,16.635,16.635H375.11
			c9.187,0,16.635-7.448,16.635-16.635C391.746,288.798,384.297,281.35,375.11,281.35z" />
    </g>
  </g>
  <g>
    <g>
      <path d="M375.11,405.452H265.749c-9.187,0-16.635,7.448-16.635,16.635c0,9.187,7.448,16.635,16.635,16.635H375.11
			c9.187,0,16.635-7.448,16.635-16.635C391.746,412.9,384.297,405.452,375.11,405.452z" />
    </g>
  </g>
</svg>
